<mxfile host="app.diagrams.net" modified="2024-03-12T15:29:53.808Z" agent="Mozilla/5.0 (Windows NT 10.0; Win64; x64) AppleWebKit/537.36 (KHTML, like Gecko) Chrome/122.0.0.0 Safari/537.36 Edg/122.0.0.0" etag="Z2D1r27QBNUIv6u9H0Su" version="23.1.5" type="github">
  <diagram name="Страница — 1" id="j9c4j-7NDMaKkOrPyNq9">
    <mxGraphModel dx="1002" dy="577" grid="1" gridSize="10" guides="1" tooltips="1" connect="1" arrows="1" fold="1" page="1" pageScale="1" pageWidth="827" pageHeight="1169" math="0" shadow="0">
      <root>
        <mxCell id="0" />
        <mxCell id="1" parent="0" />
        <mxCell id="oWYn7JGgKRBTKAJfzZio-1" value="Пользователи (преподаватели)" style="swimlane;childLayout=stackLayout;horizontal=1;startSize=50;horizontalStack=0;rounded=1;fontSize=14;fontStyle=0;strokeWidth=2;resizeParent=0;resizeLast=1;shadow=0;dashed=0;align=center;arcSize=4;whiteSpace=wrap;html=1;" vertex="1" parent="1">
          <mxGeometry x="333.5" y="170" width="160" height="190" as="geometry" />
        </mxCell>
        <mxCell id="oWYn7JGgKRBTKAJfzZio-2" value="ФИО&lt;br&gt;Электронная почта&lt;br&gt;Пароль&lt;br&gt;Определяющий номер&lt;div&gt;Область преподавания&lt;/div&gt;" style="align=left;strokeColor=none;fillColor=none;spacingLeft=4;fontSize=12;verticalAlign=top;resizable=0;rotatable=0;part=1;html=1;" vertex="1" parent="oWYn7JGgKRBTKAJfzZio-1">
          <mxGeometry y="50" width="160" height="140" as="geometry" />
        </mxCell>
        <mxCell id="oWYn7JGgKRBTKAJfzZio-3" value="Группы" style="swimlane;childLayout=stackLayout;horizontal=1;startSize=50;horizontalStack=0;rounded=1;fontSize=14;fontStyle=0;strokeWidth=2;resizeParent=0;resizeLast=1;shadow=0;dashed=0;align=center;arcSize=4;whiteSpace=wrap;html=1;" vertex="1" parent="1">
          <mxGeometry x="600" y="360" width="160" height="190" as="geometry" />
        </mxCell>
        <mxCell id="oWYn7JGgKRBTKAJfzZio-36" value="Номер&lt;br&gt;Год&lt;div&gt;&lt;br/&gt;&lt;/div&gt;" style="text;html=1;align=left;verticalAlign=middle;resizable=0;points=[];autosize=1;strokeColor=none;fillColor=none;" vertex="1" parent="oWYn7JGgKRBTKAJfzZio-3">
          <mxGeometry y="50" width="160" height="140" as="geometry" />
        </mxCell>
        <mxCell id="oWYn7JGgKRBTKAJfzZio-5" value="Студенты" style="swimlane;childLayout=stackLayout;horizontal=1;startSize=50;horizontalStack=0;rounded=1;fontSize=14;fontStyle=0;strokeWidth=2;resizeParent=0;resizeLast=1;shadow=0;dashed=0;align=center;arcSize=4;whiteSpace=wrap;html=1;" vertex="1" parent="1">
          <mxGeometry x="80" y="360" width="160" height="190" as="geometry" />
        </mxCell>
        <mxCell id="oWYn7JGgKRBTKAJfzZio-37" value="ФИО&lt;br&gt;Студенческий номер" style="text;html=1;align=left;verticalAlign=middle;resizable=0;points=[];autosize=1;strokeColor=none;fillColor=none;" vertex="1" parent="oWYn7JGgKRBTKAJfzZio-5">
          <mxGeometry y="50" width="160" height="140" as="geometry" />
        </mxCell>
        <mxCell id="oWYn7JGgKRBTKAJfzZio-6" value="Предметы" style="swimlane;childLayout=stackLayout;horizontal=1;startSize=50;horizontalStack=0;rounded=1;fontSize=14;fontStyle=0;strokeWidth=2;resizeParent=0;resizeLast=1;shadow=0;dashed=0;align=center;arcSize=4;whiteSpace=wrap;html=1;" vertex="1" parent="1">
          <mxGeometry x="600" y="40" width="160" height="190" as="geometry" />
        </mxCell>
        <mxCell id="oWYn7JGgKRBTKAJfzZio-34" value="&lt;div style=&quot;text-align: justify;&quot;&gt;Название&lt;/div&gt;&lt;div style=&quot;text-align: justify;&quot;&gt;Язык программирования&lt;/div&gt;&lt;div style=&quot;text-align: justify;&quot;&gt;Среда разработки&lt;/div&gt;" style="text;html=1;align=left;verticalAlign=middle;resizable=0;points=[];autosize=1;strokeColor=none;fillColor=none;" vertex="1" parent="oWYn7JGgKRBTKAJfzZio-6">
          <mxGeometry y="50" width="160" height="140" as="geometry" />
        </mxCell>
        <mxCell id="oWYn7JGgKRBTKAJfzZio-7" value="Занятия" style="swimlane;childLayout=stackLayout;horizontal=1;startSize=50;horizontalStack=0;rounded=1;fontSize=14;fontStyle=0;strokeWidth=2;resizeParent=0;resizeLast=1;shadow=0;dashed=0;align=center;arcSize=4;whiteSpace=wrap;html=1;" vertex="1" parent="1">
          <mxGeometry x="80" y="40" width="160" height="190" as="geometry" />
        </mxCell>
        <mxCell id="oWYn7JGgKRBTKAJfzZio-38" value="Номер занятия&lt;br&gt;Тип занятия&lt;br&gt;Дата занятия&lt;br&gt;Оценка" style="text;html=1;align=left;verticalAlign=middle;resizable=0;points=[];autosize=1;strokeColor=none;fillColor=none;" vertex="1" parent="oWYn7JGgKRBTKAJfzZio-7">
          <mxGeometry y="50" width="160" height="140" as="geometry" />
        </mxCell>
        <mxCell id="oWYn7JGgKRBTKAJfzZio-9" value="" style="endArrow=none;html=1;rounded=0;" edge="1" parent="1" source="oWYn7JGgKRBTKAJfzZio-1" target="oWYn7JGgKRBTKAJfzZio-3">
          <mxGeometry relative="1" as="geometry">
            <mxPoint x="320" y="290" as="sourcePoint" />
            <mxPoint x="480" y="290" as="targetPoint" />
          </mxGeometry>
        </mxCell>
        <mxCell id="oWYn7JGgKRBTKAJfzZio-10" value="" style="endArrow=none;html=1;rounded=0;" edge="1" parent="1" source="oWYn7JGgKRBTKAJfzZio-1" target="oWYn7JGgKRBTKAJfzZio-5">
          <mxGeometry relative="1" as="geometry">
            <mxPoint x="504" y="236" as="sourcePoint" />
            <mxPoint x="610" y="184" as="targetPoint" />
          </mxGeometry>
        </mxCell>
        <mxCell id="oWYn7JGgKRBTKAJfzZio-11" value="" style="endArrow=none;html=1;rounded=0;" edge="1" parent="1" source="oWYn7JGgKRBTKAJfzZio-1" target="oWYn7JGgKRBTKAJfzZio-6">
          <mxGeometry relative="1" as="geometry">
            <mxPoint x="514" y="246" as="sourcePoint" />
            <mxPoint x="620" y="194" as="targetPoint" />
          </mxGeometry>
        </mxCell>
        <mxCell id="oWYn7JGgKRBTKAJfzZio-12" value="" style="endArrow=none;html=1;rounded=0;" edge="1" parent="1" source="oWYn7JGgKRBTKAJfzZio-1" target="oWYn7JGgKRBTKAJfzZio-7">
          <mxGeometry relative="1" as="geometry">
            <mxPoint x="524" y="256" as="sourcePoint" />
            <mxPoint x="630" y="204" as="targetPoint" />
          </mxGeometry>
        </mxCell>
        <mxCell id="oWYn7JGgKRBTKAJfzZio-13" value="" style="endArrow=none;html=1;rounded=0;" edge="1" parent="1" source="oWYn7JGgKRBTKAJfzZio-6" target="oWYn7JGgKRBTKAJfzZio-3">
          <mxGeometry relative="1" as="geometry">
            <mxPoint x="534" y="266" as="sourcePoint" />
            <mxPoint x="640" y="214" as="targetPoint" />
          </mxGeometry>
        </mxCell>
        <mxCell id="oWYn7JGgKRBTKAJfzZio-14" value="" style="endArrow=none;html=1;rounded=0;" edge="1" parent="1" source="oWYn7JGgKRBTKAJfzZio-3" target="oWYn7JGgKRBTKAJfzZio-5">
          <mxGeometry relative="1" as="geometry">
            <mxPoint x="690" y="240" as="sourcePoint" />
            <mxPoint x="690" y="370" as="targetPoint" />
          </mxGeometry>
        </mxCell>
        <mxCell id="oWYn7JGgKRBTKAJfzZio-15" value="" style="endArrow=none;html=1;rounded=0;" edge="1" parent="1" source="oWYn7JGgKRBTKAJfzZio-5" target="oWYn7JGgKRBTKAJfzZio-7">
          <mxGeometry relative="1" as="geometry">
            <mxPoint x="610" y="465" as="sourcePoint" />
            <mxPoint x="250" y="465" as="targetPoint" />
          </mxGeometry>
        </mxCell>
        <mxCell id="oWYn7JGgKRBTKAJfzZio-17" value="1" style="text;html=1;align=center;verticalAlign=middle;resizable=0;points=[];autosize=1;strokeColor=none;fillColor=none;" vertex="1" parent="1">
          <mxGeometry x="570" y="428" width="30" height="30" as="geometry" />
        </mxCell>
        <mxCell id="oWYn7JGgKRBTKAJfzZio-18" value="∞" style="text;html=1;align=center;verticalAlign=middle;resizable=0;points=[];autosize=1;strokeColor=none;fillColor=none;" vertex="1" parent="1">
          <mxGeometry x="240" y="428" width="30" height="30" as="geometry" />
        </mxCell>
        <mxCell id="oWYn7JGgKRBTKAJfzZio-19" value="∞" style="text;html=1;align=center;verticalAlign=middle;resizable=0;points=[];autosize=1;strokeColor=none;fillColor=none;" vertex="1" parent="1">
          <mxGeometry x="490" y="190" width="30" height="30" as="geometry" />
        </mxCell>
        <mxCell id="oWYn7JGgKRBTKAJfzZio-20" value="∞" style="text;html=1;align=center;verticalAlign=middle;resizable=0;points=[];autosize=1;strokeColor=none;fillColor=none;" vertex="1" parent="1">
          <mxGeometry x="570" y="150" width="30" height="30" as="geometry" />
        </mxCell>
        <mxCell id="oWYn7JGgKRBTKAJfzZio-21" value="∞" style="text;html=1;align=center;verticalAlign=middle;resizable=0;points=[];autosize=1;strokeColor=none;fillColor=none;" vertex="1" parent="1">
          <mxGeometry x="493.5" y="300" width="30" height="30" as="geometry" />
        </mxCell>
        <mxCell id="oWYn7JGgKRBTKAJfzZio-22" value="∞" style="text;html=1;align=center;verticalAlign=middle;resizable=0;points=[];autosize=1;strokeColor=none;fillColor=none;" vertex="1" parent="1">
          <mxGeometry x="570" y="360" width="30" height="30" as="geometry" />
        </mxCell>
        <mxCell id="oWYn7JGgKRBTKAJfzZio-23" value="∞" style="text;html=1;align=center;verticalAlign=middle;resizable=0;points=[];autosize=1;strokeColor=none;fillColor=none;" vertex="1" parent="1">
          <mxGeometry x="303.5" y="300" width="30" height="30" as="geometry" />
        </mxCell>
        <mxCell id="oWYn7JGgKRBTKAJfzZio-24" value="∞" style="text;html=1;align=center;verticalAlign=middle;resizable=0;points=[];autosize=1;strokeColor=none;fillColor=none;" vertex="1" parent="1">
          <mxGeometry x="240" y="350" width="30" height="30" as="geometry" />
        </mxCell>
        <mxCell id="oWYn7JGgKRBTKAJfzZio-25" value="1" style="text;html=1;align=center;verticalAlign=middle;resizable=0;points=[];autosize=1;strokeColor=none;fillColor=none;" vertex="1" parent="1">
          <mxGeometry x="303.5" y="190" width="30" height="30" as="geometry" />
        </mxCell>
        <mxCell id="oWYn7JGgKRBTKAJfzZio-26" value="∞" style="text;html=1;align=center;verticalAlign=middle;resizable=0;points=[];autosize=1;strokeColor=none;fillColor=none;" vertex="1" parent="1">
          <mxGeometry x="240" y="150" width="30" height="30" as="geometry" />
        </mxCell>
        <mxCell id="oWYn7JGgKRBTKAJfzZio-27" value="∞" style="text;html=1;align=center;verticalAlign=middle;resizable=0;points=[];autosize=1;strokeColor=none;fillColor=none;" vertex="1" parent="1">
          <mxGeometry x="650" y="230" width="30" height="30" as="geometry" />
        </mxCell>
        <mxCell id="oWYn7JGgKRBTKAJfzZio-28" value="∞" style="text;html=1;align=center;verticalAlign=middle;resizable=0;points=[];autosize=1;strokeColor=none;fillColor=none;" vertex="1" parent="1">
          <mxGeometry x="650" y="330" width="30" height="30" as="geometry" />
        </mxCell>
        <mxCell id="oWYn7JGgKRBTKAJfzZio-29" value="∞" style="text;html=1;align=center;verticalAlign=middle;resizable=0;points=[];autosize=1;strokeColor=none;fillColor=none;" vertex="1" parent="1">
          <mxGeometry x="160" y="330" width="30" height="30" as="geometry" />
        </mxCell>
        <mxCell id="oWYn7JGgKRBTKAJfzZio-30" value="∞" style="text;html=1;align=center;verticalAlign=middle;resizable=0;points=[];autosize=1;strokeColor=none;fillColor=none;" vertex="1" parent="1">
          <mxGeometry x="160" y="230" width="30" height="30" as="geometry" />
        </mxCell>
        <mxCell id="oWYn7JGgKRBTKAJfzZio-31" value="" style="endArrow=none;html=1;rounded=0;" edge="1" parent="1" source="oWYn7JGgKRBTKAJfzZio-6" target="oWYn7JGgKRBTKAJfzZio-7">
          <mxGeometry relative="1" as="geometry">
            <mxPoint x="170" y="370" as="sourcePoint" />
            <mxPoint x="170" y="240" as="targetPoint" />
          </mxGeometry>
        </mxCell>
        <mxCell id="oWYn7JGgKRBTKAJfzZio-32" value="1" style="text;html=1;align=center;verticalAlign=middle;resizable=0;points=[];autosize=1;strokeColor=none;fillColor=none;" vertex="1" parent="1">
          <mxGeometry x="570" y="110" width="30" height="30" as="geometry" />
        </mxCell>
        <mxCell id="oWYn7JGgKRBTKAJfzZio-33" value="∞" style="text;html=1;align=center;verticalAlign=middle;resizable=0;points=[];autosize=1;strokeColor=none;fillColor=none;" vertex="1" parent="1">
          <mxGeometry x="240" y="110" width="30" height="30" as="geometry" />
        </mxCell>
      </root>
    </mxGraphModel>
  </diagram>
</mxfile>
